<?xml version="1.0" standalone="no"?>
<!DOCTYPE svg PUBLIC "-//W3C//DTD SVG 20010904//EN"
 "http://www.w3.org/TR/2001/REC-SVG-20010904/DTD/svg10.dtd">
<svg version="1.0" xmlns="http://www.w3.org/2000/svg"
 width="72.000000pt" height="72.000000pt" viewBox="0 0 72.000000 72.000000"
 preserveAspectRatio="xMidYMid meet">
<metadata>
Created by potrace 1.15, written by Peter Selinger 2001-2017
</metadata>
<g transform="translate(0.000000,72.000000) scale(0.100000,-0.100000)"
fill="#000000" stroke="none">
<path d="M129 655 c-51 -27 -95 -73 -116 -122 -10 -24 -13 -92 -13 -263 l0
-230 90 0 c50 0 90 2 90 4 0 14 -73 76 -90 76 -21 0 -22 2 -18 178 3 177 3
179 31 221 37 55 91 80 175 81 l62 0 0 40 0 40 -82 0 c-68 -1 -92 -5 -129 -25z"/>
<path d="M360 640 l0 -40 70 0 70 0 0 -170 0 -170 45 0 45 0 0 170 0 170 65 0
65 0 0 40 0 40 -180 0 -180 0 0 -40z"/>
<path d="M650 439 c0 -77 -5 -160 -11 -185 -15 -59 -62 -108 -119 -125 -36
-11 -110 -68 -110 -85 0 -2 28 -4 63 -4 105 0 196 57 234 147 9 23 13 84 13
213 l0 180 -35 0 -35 0 0 -141z"/>
<path d="M225 455 c-56 -20 -85 -56 -85 -107 0 -56 46 -101 126 -123 88 -24
104 -32 104 -54 0 -40 -74 -66 -120 -41 -10 5 -23 23 -28 40 -11 29 -13 30
-54 24 -24 -4 -44 -8 -46 -9 -6 -5 23 -73 42 -94 45 -51 138 -66 216 -35 69
28 99 107 66 173 -20 38 -49 55 -127 76 -71 20 -95 36 -86 59 15 38 101 31
119 -9 9 -21 18 -25 56 -25 l45 0 -7 33 c-9 43 -54 86 -102 97 -52 13 -72 12
-119 -5z"/>
</g>
</svg>
